<?xml version="1.0" encoding="utf-8"?>
<!-- Generator: Adobe Illustrator 26.0.1, SVG Export Plug-In . SVG Version: 6.00 Build 0)  -->
<svg version="1.1" id="Layer_1" xmlns="http://www.w3.org/2000/svg" xmlns:xlink="http://www.w3.org/1999/xlink" x="0px" y="0px"
	 viewBox="0 0 800 800" style="enable-background:new 0 0 800 800;" xml:space="preserve">
<style type="text/css">
	.st0{fill:#8E3DFC;}
	.st1{fill:#111111;}
	.st2{fill:#FFFFFF;}
	.st3{fill:#262626;}
	.st4{fill:#BE59CF;}
</style>
<rect x="840.75" y="-20.5" class="st0" width="818.6" height="833.73"/>
<rect x="-865.24" y="-2.16" class="st1" width="818.6" height="833.73"/>
<path d="M-2589.8-541.24c-2.72,5.07-5.62,5.07-10,0C-2596.47-541.24-2593.14-541.24-2589.8-541.24z"/>
<g>
	<path class="st0" d="M1902.13,437.28l99.79-135.9h159.99l67.27,61.56h-75.59l-53.77-51.11c-4.1-3.9-9.55-6.07-15.21-6.07l0,0
		c-7.03,0-13.64,3.35-17.8,9.02l-89.65,122.51H1902.13z"/>
	<path class="st0" d="M2304.34,362.72l-99.79,135.9h-159.99l-67.27-61.56h75.59l53.77,51.11c4.1,3.9,9.55,6.07,15.21,6.07l0,0
		c7.03,0,13.64-3.35,17.8-9.02l89.65-122.51H2304.34z"/>
</g>
<g>
	<path class="st0" d="M-667.39,430.89l27.03-36.81h43.33l18.22,16.67h-20.47l-14.56-13.84c-1.11-1.06-2.59-1.65-4.12-1.65l0,0
		c-1.9,0-3.69,0.91-4.82,2.44l-24.28,33.18H-667.39z"/>
	<path class="st0" d="M-558.46,410.7l-27.03,36.81h-43.33l-18.22-16.67h20.47l14.56,13.84c1.11,1.06,2.59,1.65,4.12,1.65l0,0
		c1.9,0,3.69-0.91,4.82-2.44l24.28-33.18H-558.46z"/>
</g>
<g>
	<path class="st2" d="M-249.77,425.84c-10.02,0-19.95,0-30.07,0c0.56,3.5,2.31,6.02,5.3,7.6c4.31,2.29,11.58,1.68,14.53-2.07
		c0.24-0.31,0.77-0.53,1.18-0.53c2.48-0.05,4.97-0.02,7.47-0.02c-1.52,5.86-9.26,12.18-19.75,11.07
		c-11.58-1.23-18.25-10.4-16.99-21.3c1.33-11.47,10.97-17.5,21.42-16.38C-255.31,405.42-248.44,414.3-249.77,425.84z
		 M-258.12,419.18c-0.95-4.88-5.72-8.2-11.21-7.89c-5.45,0.31-9.77,3.65-10.11,7.89C-272.37,419.18-265.3,419.18-258.12,419.18z"/>
	<path class="st2" d="M-375.59,440.99c-2.4,0-4.66,0-7.05,0c0-2.26,0-4.47,0-6.67c-0.09-0.03-0.18-0.06-0.27-0.1
		c-0.33,0.54-0.63,1.1-0.98,1.62c-3.41,5-8.36,6.66-14.07,6.01c-9.92-1.13-16.16-8.45-16.14-18.54
		c0.02-10.17,6.45-17.74,16.21-18.99c6.92-0.89,13.08,0.61,17.91,5.97c2.7,2.99,4.2,6.63,4.33,10.57
		C-375.43,427.53-375.59,434.2-375.59,440.99z M-394.56,411.37c-6.71-0.14-11.47,4.55-11.63,11.45c-0.16,6.8,4.48,11.69,11.23,11.86
		c6.68,0.17,11.51-4.6,11.62-11.46C-383.23,416.35-387.81,411.51-394.56,411.37z"/>
	<path class="st2" d="M-470.24,422.79c0.28,10.62-7.73,18.87-18.59,19.17c-11.37,0.31-19.88-7.29-20.16-18.01
		c-0.29-11.38,7.39-19.58,18.61-19.88C-478.81,403.77-470.54,411.46-470.24,422.79z M-489.48,411.37
		c-6.71-0.13-11.47,4.56-11.63,11.46c-0.16,6.8,4.48,11.69,11.23,11.86c6.68,0.17,11.51-4.6,11.61-11.46
		C-478.15,416.34-482.73,411.5-489.48,411.37z"/>
	<path class="st2" d="M-291.73,418.31c-2.42,0-4.75,0.07-7.07-0.06c-0.47-0.03-1.03-0.7-1.33-1.2c-2.34-3.94-5.89-5.72-10.36-5.66
		c-4.36,0.05-7.83,1.84-9.89,5.83c-3.63,7.01-0.1,15.39,7.18,17.14c5.41,1.3,10.49-0.91,13.22-5.7c0.22-0.38,0.71-0.86,1.08-0.87
		c2.36-0.08,4.73-0.04,7.11-0.04c-0.87,8.3-9.58,14.56-19.56,14.21c-10.15-0.36-17.97-7.94-18.28-17.73
		c-0.34-11.14,6.52-19.07,17.42-20.11C-302.29,403.17-293.23,409.35-291.73,418.31z"/>
	<path class="st2" d="M-542.61,430.56c2.67,0,5.24,0,7.88,0c0.55,2.95,2.7,4.04,5.34,4.25c1.68,0.14,3.4-0.06,5.08-0.27
		c0.73-0.09,1.47-0.51,2.1-0.93c1.28-0.83,1.85-2.07,1.68-3.59c-0.17-1.52-1.25-2.29-2.55-2.58c-2.32-0.53-4.68-0.84-7.02-1.27
		c-1.42-0.26-2.85-0.51-4.24-0.89c-7.84-2.17-10.22-11.09-4.55-17.04c1.84-1.94,4.14-3.08,6.72-3.65c4.38-0.96,8.67-0.75,12.71,1.34
		c3.67,1.9,5.75,4.92,6.09,9.23c-2.58,0-5.09,0-7.63,0c-1.95-3.93-6.73-5.36-10.69-3.15c-1.48,0.82-2.35,2.05-2.21,3.79
		c0.14,1.73,1.42,2.52,2.89,2.83c2.83,0.6,5.7,1.01,8.55,1.52c0.76,0.14,1.52,0.3,2.27,0.52c3.75,1.08,6.76,2.97,7.47,7.18
		c0.75,4.45-0.52,8.24-4.15,11c-3.85,2.93-8.38,3.59-12.99,2.95c-2.55-0.36-5.16-1.2-7.44-2.41
		C-540.65,437.6-542.35,434.49-542.61,430.56z"/>
	<path class="st2" d="M-334.45,440.99c-2.6,0-5.07,0-7.76,0c0-0.65,0.01-1.25,0-1.85c-0.07-6.42,0.07-12.85-0.27-19.25
		c-0.27-5.12-3.78-8.15-8.99-8.49c-5.17-0.34-8.99,2.24-10.13,6.99c-0.33,1.39-0.42,2.87-0.43,4.31
		c-0.05,5.49-0.02,10.98-0.02,16.47c0,0.56,0,1.12,0,1.78c-2.63,0-5.14,0-7.74,0c-0.05-0.2-0.15-0.44-0.15-0.68
		c0.01-6.32-0.06-12.64,0.06-18.95c0.26-13.01,9.63-18.35,20.67-17.06c5.58,0.66,10.18,3.02,12.66,8.25c1.08,2.29,1.91,4.91,2,7.41
		C-334.28,426.89-334.45,433.88-334.45,440.99z"/>
	<path class="st2" d="M-452.55,404.99c2.67,0,5.25-0.05,7.82,0.06c0.38,0.02,0.89,0.72,1.07,1.2c3.22,8.51,6.39,17.03,9.58,25.55
		c0.22,0.58,0.46,1.15,0.79,1.97c0.31-0.77,0.54-1.33,0.75-1.89c3.19-8.52,6.39-17.03,9.53-25.57c0.39-1.06,0.89-1.39,1.99-1.35
		c2.22,0.09,4.45,0.03,6.83,0.03c-0.18,0.54-0.3,0.97-0.47,1.38c-4.48,11.12-8.97,22.24-13.41,33.38c-0.41,1.04-0.93,1.37-2.02,1.33
		c-2.33-0.08-4.66,0.03-6.99-0.07c-0.5-0.02-1.25-0.49-1.44-0.93c-4.65-11.39-9.23-22.8-13.83-34.21
		C-452.43,405.63-452.46,405.38-452.55,404.99z"/>
	<path class="st2" d="M-465.07,389.18c2.6,0,5.08,0,7.67,0c0,17.25,0,34.46,0,51.78c-2.52,0-5.04,0-7.67,0
		C-465.07,423.76-465.07,406.54-465.07,389.18z"/>
</g>
<g>
	<path class="st0" d="M191.11,412.55l27.03-36.81h43.33l18.22,16.67h-20.47l-14.56-13.84c-1.11-1.06-2.59-1.65-4.12-1.65h0
		c-1.9,0-3.69,0.91-4.82,2.44l-24.28,33.18H191.11z"/>
	<path class="st0" d="M300.04,392.36l-27.03,36.81h-43.33l-18.22-16.67h20.47l14.56,13.84c1.11,1.06,2.59,1.65,4.12,1.65l0,0
		c1.9,0,3.69-0.91,4.82-2.44l24.28-33.18H300.04z"/>
</g>
<g>
	<path class="st3" d="M608.73,407.5c-10.02,0-19.95,0-30.07,0c0.56,3.5,2.31,6.02,5.3,7.6c4.31,2.29,11.58,1.68,14.53-2.07
		c0.24-0.31,0.77-0.53,1.18-0.53c2.48-0.05,4.97-0.02,7.47-0.02c-1.52,5.86-9.26,12.18-19.75,11.07
		c-11.58-1.23-18.25-10.4-16.99-21.3c1.33-11.47,10.97-17.5,21.42-16.38C603.19,387.08,610.05,395.96,608.73,407.5z M600.38,400.83
		c-0.95-4.88-5.72-8.2-11.21-7.89c-5.45,0.31-9.77,3.65-10.11,7.89C586.13,400.83,593.2,400.83,600.38,400.83z"/>
	<path class="st3" d="M482.9,422.64c-2.4,0-4.66,0-7.05,0c0-2.26,0-4.47,0-6.67c-0.09-0.03-0.18-0.06-0.27-0.1
		c-0.33,0.54-0.63,1.1-0.98,1.62c-3.41,5-8.36,6.66-14.07,6.01c-9.92-1.13-16.16-8.45-16.14-18.54
		c0.02-10.17,6.45-17.74,16.21-18.99c6.92-0.89,13.08,0.61,17.91,5.97c2.7,2.99,4.2,6.63,4.33,10.57
		C483.07,409.18,482.9,415.86,482.9,422.64z M463.94,393.03c-6.71-0.14-11.47,4.55-11.63,11.45c-0.16,6.8,4.48,11.69,11.23,11.86
		c6.68,0.17,11.51-4.6,11.62-11.46C475.26,398,470.68,393.16,463.94,393.03z"/>
	<path class="st3" d="M388.25,404.45c0.28,10.62-7.73,18.87-18.59,19.17c-11.37,0.31-19.88-7.29-20.16-18.01
		c-0.29-11.38,7.39-19.58,18.61-19.88C379.68,385.42,387.96,393.12,388.25,404.45z M369.02,393.03
		c-6.71-0.13-11.47,4.56-11.63,11.46c-0.16,6.8,4.48,11.69,11.23,11.86c6.68,0.17,11.51-4.6,11.61-11.46
		C380.35,398,375.77,393.16,369.02,393.03z"/>
	<path class="st3" d="M566.77,399.96c-2.42,0-4.75,0.07-7.07-0.06c-0.47-0.03-1.03-0.7-1.33-1.2c-2.34-3.94-5.89-5.72-10.36-5.66
		c-4.36,0.05-7.83,1.84-9.89,5.83c-3.63,7.01-0.1,15.39,7.18,17.14c5.41,1.3,10.49-0.91,13.22-5.7c0.22-0.38,0.71-0.86,1.08-0.87
		c2.36-0.08,4.73-0.04,7.11-0.04c-0.87,8.3-9.58,14.56-19.56,14.21c-10.15-0.36-17.97-7.94-18.28-17.73
		c-0.34-11.14,6.52-19.07,17.42-20.11C556.21,384.83,565.27,391.01,566.77,399.96z"/>
	<path class="st3" d="M315.89,412.21c2.67,0,5.24,0,7.88,0c0.55,2.95,2.7,4.04,5.34,4.25c1.68,0.14,3.4-0.06,5.08-0.27
		c0.73-0.09,1.47-0.51,2.1-0.93c1.28-0.83,1.85-2.07,1.68-3.59c-0.17-1.52-1.25-2.29-2.55-2.58c-2.32-0.53-4.68-0.84-7.02-1.27
		c-1.42-0.26-2.85-0.51-4.24-0.89c-7.84-2.17-10.22-11.09-4.55-17.04c1.84-1.94,4.14-3.08,6.72-3.65c4.38-0.96,8.67-0.75,12.71,1.34
		c3.67,1.9,5.75,4.92,6.09,9.23c-2.58,0-5.09,0-7.63,0c-1.95-3.93-6.73-5.36-10.69-3.15c-1.48,0.82-2.35,2.05-2.21,3.79
		c0.14,1.73,1.42,2.52,2.89,2.83c2.83,0.6,5.7,1.01,8.55,1.52c0.76,0.14,1.52,0.3,2.27,0.52c3.75,1.08,6.76,2.97,7.47,7.18
		c0.75,4.45-0.52,8.24-4.15,11c-3.85,2.93-8.38,3.59-12.99,2.95c-2.55-0.36-5.16-1.2-7.44-2.41
		C317.84,419.26,316.15,416.15,315.89,412.21z"/>
	<path class="st3" d="M524.05,422.65c-2.6,0-5.07,0-7.76,0c0-0.65,0.01-1.25,0-1.85c-0.07-6.42,0.07-12.85-0.27-19.25
		c-0.27-5.12-3.78-8.15-8.99-8.49c-5.17-0.34-8.99,2.24-10.13,6.99c-0.33,1.39-0.42,2.87-0.43,4.31
		c-0.05,5.49-0.02,10.98-0.02,16.47c0,0.56,0,1.12,0,1.78c-2.63,0-5.14,0-7.74,0c-0.05-0.2-0.15-0.44-0.15-0.68
		c0.01-6.32-0.06-12.64,0.06-18.95c0.26-13.01,9.63-18.35,20.67-17.06c5.58,0.66,10.18,3.02,12.66,8.25c1.08,2.29,1.91,4.91,2,7.41
		C524.22,408.55,524.05,415.54,524.05,422.65z"/>
	<path class="st3" d="M405.95,386.65c2.67,0,5.25-0.05,7.82,0.06c0.38,0.02,0.89,0.72,1.07,1.2c3.22,8.51,6.39,17.03,9.58,25.55
		c0.22,0.58,0.46,1.15,0.79,1.97c0.31-0.77,0.54-1.33,0.75-1.89c3.19-8.52,6.39-17.03,9.53-25.57c0.39-1.06,0.89-1.39,1.99-1.35
		c2.22,0.09,4.45,0.03,6.83,0.03c-0.18,0.54-0.3,0.97-0.47,1.38c-4.48,11.12-8.97,22.24-13.41,33.38c-0.41,1.04-0.93,1.37-2.02,1.33
		c-2.33-0.08-4.66,0.03-6.99-0.07c-0.5-0.02-1.25-0.49-1.44-0.93c-4.65-11.39-9.23-22.8-13.83-34.21
		C406.06,387.29,406.04,387.03,405.95,386.65z"/>
	<path class="st3" d="M393.43,370.83c2.6,0,5.08,0,7.67,0c0,17.25,0,34.46,0,51.78c-2.52,0-5.04,0-7.67,0
		C393.43,405.41,393.43,388.2,393.43,370.83z"/>
</g>
<g>
	<path class="st4" d="M-1668.97,387.79l27.03-36.81h43.33l18.22,16.67h-20.47l-14.56-13.84c-1.11-1.06-2.59-1.65-4.12-1.65l0,0
		c-1.9,0-3.69,0.91-4.82,2.44l-24.28,33.18H-1668.97z"/>
	<path class="st4" d="M-1560.04,367.6l-27.03,36.81h-43.33l-18.22-16.67h20.47l14.56,13.84c1.11,1.06,2.59,1.65,4.12,1.65l0,0
		c1.9,0,3.69-0.91,4.82-2.44l24.28-33.18H-1560.04z"/>
</g>
<g>
	<path class="st2" d="M1038.6,412.55l27.03-36.81h43.33l18.22,16.67h-20.47l-14.56-13.84c-1.11-1.06-2.59-1.65-4.12-1.65l0,0
		c-1.9,0-3.69,0.91-4.82,2.44l-24.28,33.18H1038.6z"/>
	<path class="st2" d="M1147.53,392.36l-27.03,36.81h-43.33l-18.22-16.67h20.47l14.56,13.84c1.11,1.06,2.59,1.65,4.12,1.65l0,0
		c1.9,0,3.69-0.91,4.82-2.44l24.28-33.18H1147.53z"/>
</g>
<g>
	<path class="st2" d="M1456.22,407.5c-10.02,0-19.95,0-30.07,0c0.56,3.5,2.31,6.02,5.3,7.6c4.31,2.29,11.58,1.68,14.53-2.07
		c0.24-0.31,0.77-0.53,1.18-0.53c2.48-0.05,4.97-0.02,7.47-0.02c-1.52,5.86-9.26,12.18-19.75,11.07
		c-11.58-1.23-18.25-10.4-16.99-21.3c1.33-11.47,10.97-17.5,21.42-16.38C1450.68,387.08,1457.54,395.96,1456.22,407.5z
		 M1447.87,400.83c-0.95-4.88-5.72-8.2-11.21-7.89c-5.45,0.31-9.77,3.65-10.11,7.89C1433.62,400.83,1440.69,400.83,1447.87,400.83z"
		/>
	<path class="st2" d="M1330.39,422.64c-2.4,0-4.66,0-7.05,0c0-2.26,0-4.47,0-6.67c-0.09-0.03-0.18-0.06-0.27-0.1
		c-0.33,0.54-0.63,1.1-0.98,1.62c-3.41,5-8.36,6.66-14.07,6.01c-9.92-1.13-16.16-8.45-16.14-18.54
		c0.02-10.17,6.45-17.74,16.21-18.99c6.92-0.89,13.08,0.61,17.91,5.97c2.7,2.99,4.2,6.63,4.33,10.57
		C1330.56,409.18,1330.39,415.86,1330.39,422.64z M1311.43,393.03c-6.71-0.14-11.47,4.55-11.63,11.45
		c-0.16,6.8,4.48,11.69,11.23,11.86c6.68,0.17,11.51-4.6,11.62-11.46C1322.75,398,1318.17,393.16,1311.43,393.03z"/>
	<path class="st2" d="M1235.74,404.45c0.28,10.62-7.73,18.87-18.59,19.17c-11.37,0.31-19.88-7.29-20.16-18.01
		c-0.29-11.38,7.39-19.58,18.61-19.88C1227.17,385.42,1235.45,393.12,1235.74,404.45z M1216.51,393.03
		c-6.71-0.13-11.47,4.56-11.63,11.46c-0.16,6.8,4.48,11.69,11.23,11.86c6.68,0.17,11.51-4.6,11.61-11.46
		C1227.84,398,1223.26,393.16,1216.51,393.03z"/>
	<path class="st2" d="M1414.26,399.96c-2.42,0-4.75,0.07-7.07-0.06c-0.47-0.03-1.03-0.7-1.33-1.2c-2.34-3.94-5.89-5.72-10.36-5.66
		c-4.36,0.05-7.83,1.84-9.89,5.83c-3.63,7.01-0.1,15.39,7.18,17.14c5.41,1.3,10.49-0.91,13.22-5.7c0.22-0.38,0.71-0.86,1.08-0.87
		c2.36-0.08,4.73-0.04,7.11-0.04c-0.87,8.3-9.58,14.56-19.56,14.21c-10.15-0.36-17.97-7.94-18.28-17.73
		c-0.34-11.14,6.52-19.07,17.42-20.11C1403.7,384.83,1412.76,391.01,1414.26,399.96z"/>
	<path class="st2" d="M1163.38,412.21c2.67,0,5.24,0,7.88,0c0.55,2.95,2.7,4.04,5.34,4.25c1.68,0.14,3.4-0.06,5.08-0.27
		c0.73-0.09,1.47-0.51,2.1-0.93c1.28-0.83,1.85-2.07,1.68-3.59c-0.17-1.52-1.25-2.29-2.55-2.58c-2.32-0.53-4.68-0.84-7.02-1.27
		c-1.42-0.26-2.85-0.51-4.24-0.89c-7.84-2.17-10.22-11.09-4.55-17.04c1.84-1.94,4.14-3.08,6.72-3.65c4.38-0.96,8.67-0.75,12.71,1.34
		c3.67,1.9,5.75,4.92,6.09,9.23c-2.58,0-5.09,0-7.63,0c-1.95-3.93-6.73-5.36-10.69-3.15c-1.48,0.82-2.35,2.05-2.21,3.79
		c0.14,1.73,1.42,2.52,2.89,2.83c2.83,0.6,5.7,1.01,8.55,1.52c0.76,0.14,1.52,0.3,2.27,0.52c3.75,1.08,6.76,2.97,7.47,7.18
		c0.75,4.45-0.52,8.24-4.15,11c-3.85,2.93-8.38,3.59-12.99,2.95c-2.55-0.36-5.16-1.2-7.44-2.41
		C1165.33,419.26,1163.64,416.15,1163.38,412.21z"/>
	<path class="st2" d="M1371.54,422.65c-2.6,0-5.07,0-7.76,0c0-0.65,0.01-1.25,0-1.85c-0.07-6.42,0.07-12.85-0.27-19.25
		c-0.27-5.12-3.78-8.15-8.99-8.49c-5.17-0.34-8.99,2.24-10.13,6.99c-0.33,1.39-0.42,2.87-0.43,4.31
		c-0.05,5.49-0.02,10.98-0.02,16.47c0,0.56,0,1.12,0,1.78c-2.63,0-5.14,0-7.74,0c-0.05-0.2-0.15-0.44-0.15-0.68
		c0.01-6.32-0.06-12.64,0.06-18.95c0.26-13.01,9.63-18.35,20.67-17.06c5.58,0.66,10.18,3.02,12.66,8.25c1.08,2.29,1.91,4.91,2,7.41
		C1371.71,408.55,1371.54,415.54,1371.54,422.65z"/>
	<path class="st2" d="M1253.44,386.65c2.67,0,5.25-0.05,7.82,0.06c0.38,0.02,0.89,0.72,1.07,1.2c3.22,8.51,6.39,17.03,9.58,25.55
		c0.22,0.58,0.46,1.15,0.79,1.97c0.31-0.77,0.54-1.33,0.75-1.89c3.19-8.52,6.39-17.03,9.53-25.57c0.39-1.06,0.89-1.39,1.99-1.35
		c2.22,0.09,4.45,0.03,6.83,0.03c-0.18,0.54-0.3,0.97-0.47,1.38c-4.48,11.12-8.97,22.24-13.41,33.38c-0.41,1.04-0.93,1.37-2.02,1.33
		c-2.33-0.08-4.66,0.03-6.99-0.07c-0.5-0.02-1.25-0.49-1.44-0.93c-4.65-11.39-9.23-22.8-13.83-34.21
		C1253.55,387.29,1253.53,387.03,1253.44,386.65z"/>
	<path class="st2" d="M1240.92,370.83c2.6,0,5.08,0,7.67,0c0,17.25,0,34.46,0,51.78c-2.52,0-5.04,0-7.67,0
		C1240.92,405.41,1240.92,388.2,1240.92,370.83z"/>
</g>
<g>
</g>
<g>
</g>
<g>
</g>
<g>
</g>
<g>
</g>
<g>
</g>
</svg>
